<svg width="26" height="26" viewBox="0 0 26 26" fill="none" xmlns="http://www.w3.org/2000/svg">
<path fill-rule="evenodd" clip-rule="evenodd" d="M13 25.5C19.9037 25.5 25.5 19.9037 25.5 13C25.5 6.09625 19.9037 0.5 13 0.5C6.09625 0.5 0.5 6.09625 0.5 13C0.5 19.9037 6.09625 25.5 13 25.5ZM17.04 14.7013L18.97 16.6362C19.3537 17.0225 19.3413 17.6612 18.945 18.0612L18.3925 18.6013L18.38 18.59C17.917 18.9454 17.367 19.1699 16.7875 19.24C16.6625 19.2537 13.7437 19.5275 10.1212 15.8975C7.5 13.2712 6.53375 11.335 6.79 9.2175C6.81875 8.9525 6.88375 8.69 6.99 8.41375C7.1025 8.12375 7.255 7.85375 7.4375 7.62125L7.4225 7.60625L7.96625 7.0575C8.365 6.6575 9.0025 6.64625 9.385 7.03125L11.3162 8.96625C11.7 9.35125 11.6888 9.98875 11.2913 10.3888L10.9688 10.71L10.3162 11.3638C10.3518 11.426 10.3868 11.4885 10.4213 11.5512L10.4225 11.555C10.7638 12.1712 11.2312 13.0138 12.1163 13.9C13.0013 14.7875 13.8412 15.255 14.4563 15.5962L14.6475 15.7038L15.62 14.7288C16.0187 14.3288 16.655 14.3175 17.04 14.7025V14.7013Z" fill="white"/>
</svg>
