<svg width="18" height="18" viewBox="0 0 18 18" fill="none" xmlns="http://www.w3.org/2000/svg">
<path d="M14.3571 0.428467C15.2425 0.428467 15.9996 0.742827 16.6283 1.37155C17.2571 2.00027 17.5714 2.75734 17.5714 3.64275V14.357C17.5714 15.2425 17.2571 15.9995 16.6283 16.6282C15.9996 17.257 15.2425 17.5713 14.3571 17.5713H12.2589V10.9307H14.4799L14.8147 8.34141H12.2589V6.68963C12.2589 6.27296 12.3463 5.96046 12.5212 5.75213C12.696 5.54379 13.0364 5.43963 13.5424 5.43963L14.904 5.42847V3.1182C14.4353 3.05123 13.7731 3.01775 12.9174 3.01775C11.9055 3.01775 11.0963 3.31537 10.4899 3.91061C9.88354 4.50585 9.58034 5.34662 9.58034 6.43293V8.34141H7.3482V10.9307H9.58034V17.5713H3.64284C2.75743 17.5713 2.00036 17.257 1.37164 16.6282C0.742918 15.9995 0.428558 15.2425 0.428558 14.357V3.64275C0.428558 2.75734 0.742918 2.00027 1.37164 1.37155C2.00036 0.742827 2.75743 0.428467 3.64284 0.428467H14.3571Z" fill="black"/>
</svg>
