<svg width="24" height="24" viewBox="0 0 24 24" fill="none" xmlns="http://www.w3.org/2000/svg">
<path d="M23.3175 20.2005L17.649 14.532C18.5327 13.0816 18.9988 11.4154 18.996 9.71699C18.996 4.59149 14.5545 0.151489 9.42899 0.151489C8.2104 0.151292 7.00371 0.391166 5.87784 0.85741C4.75197 1.32365 3.72898 2.00713 2.86731 2.86881C2.00564 3.73048 1.32216 4.75347 0.855915 5.87934C0.389671 7.00521 0.149797 8.2119 0.149994 9.43049C0.149994 14.5545 4.59149 18.996 9.71549 18.996C11.3579 18.9975 12.971 18.5604 14.388 17.73L20.0865 23.4315C20.3545 23.6988 20.7175 23.8489 21.096 23.8489C21.4745 23.8489 21.8375 23.6988 22.1055 23.4315L23.52 22.017C24.0765 21.4605 23.874 20.757 23.3175 20.2005ZM3.00599 9.43049C3.0058 8.58688 3.17179 7.7515 3.49449 6.97205C3.81718 6.19261 4.29027 5.48436 4.88672 4.88777C5.48317 4.29118 6.1913 3.81793 6.97067 3.49505C7.75004 3.17217 8.58539 3.00599 9.42899 3.00599C12.978 3.00599 16.14 6.16649 16.14 9.71699C16.1396 11.4208 15.4626 13.0546 14.2579 14.2594C13.0531 15.4641 11.4193 16.1411 9.71549 16.1415C6.16649 16.14 3.00599 12.978 3.00599 9.43049Z" fill="white"/>
</svg>
