<svg width="18" height="18" viewBox="0 0 18 18" fill="none" xmlns="http://www.w3.org/2000/svg">
<path d="M8.99985 0.248291C4.17438 0.248291 0.248444 4.17423 0.248444 8.99985C0.248444 13.8256 4.17438 17.7517 8.99985 17.7517C13.8256 17.7517 17.7516 13.8256 17.7516 8.99985C17.7514 4.17423 13.8255 0.248291 8.99985 0.248291ZM13.6577 6.71735C13.4256 7.06484 13.137 7.37105 12.8039 7.62329C12.8053 7.67407 12.8063 7.72485 12.8063 7.77563C12.8063 10.3278 10.8642 12.9677 7.61422 12.9677C6.62244 12.9681 5.65139 12.6837 4.81657 12.1483C4.78681 12.1293 4.76438 12.1007 4.75297 12.0673C4.74156 12.0339 4.74183 11.9976 4.75376 11.9644C4.76536 11.931 4.78806 11.9025 4.81809 11.8838C4.84811 11.8651 4.88364 11.8573 4.91876 11.8616C5.05579 11.8774 5.19157 11.8852 5.32251 11.8852C5.96001 11.8852 6.56751 11.7138 7.10079 11.3863C6.77961 11.3087 6.48381 11.1498 6.24184 10.9249C5.99987 10.6999 5.81989 10.4164 5.71922 10.1017C5.71098 10.0759 5.70959 10.0484 5.71517 10.0218C5.72076 9.99528 5.73314 9.97064 5.7511 9.95032C5.76906 9.92997 5.79205 9.91468 5.81777 9.90599C5.84348 9.89729 5.87103 9.8955 5.89766 9.90079C5.92704 9.90641 5.95657 9.91126 5.98594 9.91532C5.44329 9.56954 5.09126 8.96157 5.09126 8.28845V8.2661C5.09127 8.23891 5.09838 8.21219 5.11188 8.18859C5.12539 8.16499 5.14482 8.14532 5.16825 8.13153C5.19169 8.11773 5.21832 8.11029 5.24551 8.10995C5.2727 8.1096 5.29951 8.11635 5.32329 8.12954C5.39126 8.1672 5.46172 8.19985 5.53407 8.22735C5.2564 7.88418 5.10513 7.45598 5.10563 7.01454C5.10563 6.67423 5.19579 6.33923 5.36626 6.04595C5.37894 6.02408 5.39674 6.00563 5.41813 5.99215C5.43952 5.97868 5.46386 5.9706 5.48906 5.96861C5.51425 5.96661 5.53956 5.97075 5.5628 5.98069C5.58605 5.99062 5.60653 6.00604 5.62251 6.02563C6.4536 7.0447 7.66172 7.68579 8.96126 7.80392C8.95205 7.7265 8.94746 7.6486 8.94751 7.57063C8.94751 6.5086 9.81172 5.64454 10.8739 5.64454C11.375 5.64454 11.8598 5.8422 12.2175 6.18938C12.567 6.11157 12.902 5.97872 13.2098 5.79579C13.2175 5.77168 13.2309 5.7498 13.249 5.73202C13.267 5.71425 13.289 5.70111 13.3132 5.69374C13.3374 5.68637 13.3631 5.68499 13.3879 5.68972C13.4128 5.69444 13.4361 5.70513 13.4559 5.72087C13.4757 5.73661 13.4914 5.75692 13.5016 5.78007C13.5119 5.80321 13.5163 5.82849 13.5146 5.85374C13.5129 5.87898 13.5051 5.90343 13.4919 5.92499C13.4786 5.94655 13.4603 5.96458 13.4386 5.97751C13.3621 6.21739 13.2389 6.43978 13.0761 6.63188C13.2085 6.59189 13.3383 6.54367 13.4647 6.48751C13.4956 6.47384 13.5302 6.47059 13.5632 6.47825C13.5961 6.4859 13.6257 6.50406 13.6475 6.52997C13.6692 6.55589 13.682 6.58817 13.6838 6.62197C13.6857 6.65576 13.6765 6.68923 13.6577 6.71735Z" fill="#231F20"/>
</svg>
