<svg width="20" height="14" viewBox="0 0 20 14" fill="none" xmlns="http://www.w3.org/2000/svg">
<path d="M19.1667 5.09165C19.2079 3.89886 18.947 2.715 18.4083 1.64999C18.0428 1.21299 17.5356 0.918078 16.975 0.816653C14.6563 0.606258 12.3279 0.520024 10 0.55832C7.68054 0.518285 5.36059 0.601737 3.05 0.80832C2.59319 0.891417 2.17043 1.10569 1.83334 1.42499C1.08334 2.11665 1 3.29999 0.916669 4.29999C0.795762 6.09796 0.795762 7.90202 0.916669 9.69999C0.940777 10.2628 1.02458 10.8215 1.16667 11.3667C1.26715 11.7875 1.47044 12.1769 1.75834 12.5C2.09773 12.8362 2.53032 13.0627 3 13.15C4.7966 13.3718 6.60685 13.4637 8.41667 13.425C11.3333 13.4667 13.8917 13.425 16.9167 13.1917C17.3979 13.1097 17.8427 12.8829 18.1917 12.5417C18.425 12.3082 18.5992 12.0226 18.7 11.7083C18.998 10.7938 19.1444 9.83674 19.1333 8.87499C19.1667 8.40832 19.1667 5.59165 19.1667 5.09165ZM8.11667 9.37499V4.21665L13.05 6.80832C11.6667 7.57499 9.84167 8.44165 8.11667 9.37499Z" fill="black"/>
</svg>
